{
  "accessors": [
    {
      "bufferView": 2,
      "componentType": 5126,
      "count": 1734,
      "max": [
        1.745697021484375,
        0.23199699819087982,
        3.575484037399292
      ],
      "min": [
        0.02910900115966797,
        0.0008310005068778992,
        0.02191305160522461
      ],
      "type": "VEC3"
    },
    {
      "bufferView": 2,
      "byteOffset": 20808,
      "componentType": 5126,
      "count": 1734,
      "max": [
        1.0,
        1.0,
        1.0
      ],
      "min": [
        -1.0,
        -1.0,
        -1.0
      ],
      "type": "VEC3"
    },
    {
      "bufferView": 1,
      "componentType": 5126,
      "count": 1734,
      "max": [
        0.0,
        0.0
      ],
      "min": [
        0.0,
        0.0
      ],
      "type": "VEC2"
    },
    {
      "bufferView": 0,
      "componentType": 5125,
      "count": 7806,
      "type": "SCALAR"
    },
    {
      "bufferView": 2,
      "byteOffset": 41616,
      "componentType": 5126,
      "count": 57,
      "max": [
        1.5590529441833496,
        0.23199699819087982,
        3.48976993560791
      ],
      "min": [
        1.3759770393371582,
        0.23199699819087982,
        3.3086490631103516
      ],
      "type": "VEC3"
    },
    {
      "bufferView": 2,
      "byteOffset": 42300,
      "componentType": 5126,
      "count": 57,
      "max": [
        0.0,
        1.0,
        -0.0
      ],
      "min": [
        0.0,
        1.0,
        -0.0
      ],
      "type": "VEC3"
    },
    {
      "bufferView": 1,
      "byteOffset": 13872,
      "componentType": 5126,
      "count": 57,
      "max": [
        0.7552289962768555,
        0.8260020017623901
      ],
      "min": [
        0.24684099853038788,
        0.18368999660015106
      ],
      "type": "VEC2"
    },
    {
      "bufferView": 0,
      "byteOffset": 31224,
      "componentType": 5125,
      "count": 252,
      "type": "SCALAR"
    },
    {
      "bufferView": 2,
      "byteOffset": 42984,
      "componentType": 5126,
      "count": 2612,
      "max": [
        1.745697021484375,
        0.23199699819087982,
        3.6211209297180176
      ],
      "min": [
        0.0014960169792175293,
        0.03838399797677994,
        0.0
      ],
      "type": "VEC3"
    },
    {
      "bufferView": 2,
      "byteOffset": 74328,
      "componentType": 5126,
      "count": 2612,
      "max": [
        1.0,
        1.0,
        1.0
      ],
      "min": [
        -1.0,
        -1.0,
        -1.0
      ],
      "type": "VEC3"
    },
    {
      "bufferView": 1,
      "byteOffset": 14328,
      "componentType": 5126,
      "count": 2612,
      "max": [
        0.0,
        0.0
      ],
      "min": [
        0.0,
        0.0
      ],
      "type": "VEC2"
    },
    {
      "bufferView": 0,
      "byteOffset": 32232,
      "componentType": 5125,
      "count": 11706,
      "type": "SCALAR"
    },
    {
      "bufferView": 2,
      "byteOffset": 105672,
      "componentType": 5126,
      "count": 142,
      "max": [
        1.0749469995498657,
        0.235166996717453,
        3.428467035293579
      ],
      "min": [
        0.6492010354995728,
        0.0,
        2.43973708152771
      ],
      "type": "VEC3"
    },
    {
      "bufferView": 2,
      "byteOffset": 107376,
      "componentType": 5126,
      "count": 142,
      "max": [
        0.0,
        1.0,
        0.0
      ],
      "min": [
        0.0,
        -1.0,
        0.0
      ],
      "type": "VEC3"
    },
    {
      "bufferView": 1,
      "byteOffset": 35224,
      "componentType": 5126,
      "count": 142,
      "max": [
        0.0,
        0.0
      ],
      "min": [
        0.0,
        0.0
      ],
      "type": "VEC2"
    },
    {
      "bufferView": 0,
      "byteOffset": 79056,
      "componentType": 5125,
      "count": 402,
      "type": "SCALAR"
    },
    {
      "bufferView": 2,
      "byteOffset": 109080,
      "componentType": 5126,
      "count": 41,
      "max": [
        1.227241039276123,
        0.23199699819087982,
        3.4631381034851074
      ],
      "min": [
        1.161857008934021,
        0.23199699819087982,
        3.329514980316162
      ],
      "type": "VEC3"
    },
    {
      "bufferView": 2,
      "byteOffset": 109572,
      "componentType": 5126,
      "count": 41,
      "max": [
        0.0,
        1.0,
        -0.0
      ],
      "min": [
        0.0,
        1.0,
        -0.0
      ],
      "type": "VEC3"
    },
    {
      "bufferView": 1,
      "byteOffset": 36360,
      "componentType": 5126,
      "count": 41,
      "max": [
        0.8777070045471191,
        0.8777070045471191
      ],
      "min": [
        0.12229300290346146,
        0.12229300290346146
      ],
      "type": "VEC2"
    },
    {
      "bufferView": 0,
      "byteOffset": 80664,
      "componentType": 5125,
      "count": 180,
      "type": "SCALAR"
    },
    {
      "bufferView": 2,
      "byteOffset": 110064,
      "componentType": 5126,
      "count": 63,
      "max": [
        1.6481010913848877,
        0.0008310005068778992,
        3.120626926422119
      ],
      "min": [
        0.12349498271942139,
        0.0008310005068778992,
        0.47445595264434814
      ],
      "type": "VEC3"
    },
    {
      "bufferView": 2,
      "byteOffset": 110820,
      "componentType": 5126,
      "count": 63,
      "max": [
        0.0,
        -1.0,
        0.0
      ],
      "min": [
        0.0,
        -1.0,
        0.0
      ],
      "type": "VEC3"
    },
    {
      "bufferView": 1,
      "byteOffset": 36688,
      "componentType": 5126,
      "count": 63,
      "max": [
        1.0,
        1.0
      ],
      "min": [
        0.0,
        0.0
      ],
      "type": "VEC2"
    },
    {
      "bufferView": 0,
      "byteOffset": 81384,
      "componentType": 5125,
      "count": 288,
      "type": "SCALAR"
    },
    {
      "bufferView": 2,
      "byteOffset": 111576,
      "componentType": 5126,
      "count": 1185,
      "max": [
        1.4905030727386475,
        0.23683398962020874,
        3.395965099334717
      ],
      "min": [
        0.29598402976989746,
        0.06551499664783478,
        0.0
      ],
      "type": "VEC3"
    },
    {
      "bufferView": 2,
      "byteOffset": 125796,
      "componentType": 5126,
      "count": 1185,
      "max": [
        0.0,
        1.0,
        -0.0
      ],
      "min": [
        0.0,
        -1.0,
        -1.0
      ],
      "type": "VEC3"
    },
    {
      "bufferView": 1,
      "byteOffset": 37192,
      "componentType": 5126,
      "count": 1185,
      "max": [
        0.0,
        0.0
      ],
      "min": [
        0.0,
        0.0
      ],
      "type": "VEC2"
    },
    {
      "bufferView": 0,
      "byteOffset": 82536,
      "componentType": 5125,
      "count": 4608,
      "type": "SCALAR"
    },
    {
      "bufferView": 2,
      "byteOffset": 140016,
      "componentType": 5126,
      "count": 1160,
      "max": [
        1.745697021484375,
        0.23199699819087982,
        3.6211209297180176
      ],
      "min": [
        0.0,
        0.0008310005068778992,
        0.0
      ],
      "type": "VEC3"
    },
    {
      "bufferView": 2,
      "byteOffset": 153936,
      "componentType": 5126,
      "count": 1160,
      "max": [
        0.7091040015220642,
        0.7819019556045532,
        0.715376079082489
      ],
      "min": [
        -1.0,
        -0.7819019556045532,
        -0.7818143367767334
      ],
      "type": "VEC3"
    },
    {
      "bufferView": 1,
      "byteOffset": 46672,
      "componentType": 5126,
      "count": 1160,
      "max": [
        0.0,
        0.0
      ],
      "min": [
        0.0,
        0.0
      ],
      "type": "VEC2"
    },
    {
      "bufferView": 0,
      "byteOffset": 100968,
      "componentType": 5125,
      "count": 4488,
      "type": "SCALAR"
    }
  ],
  "asset": {
    "extras": {
      "author": "Eternal Realm (https://sketchfab.com/EternalRealm)",
      "license": "CC-BY-4.0 (http://creativecommons.org/licenses/by/4.0/)",
      "source": "https://sketchfab.com/3d-models/iphone-5s-2a8b3bd5333d4f1899a67d5dca6b24ab",
      "title": "IPhone 5s"
    },
    "generator": "Sketchfab-12.66.0",
    "version": "2.0"
  },
  "bufferViews": [
    {
      "buffer": 0,
      "byteLength": 118920,
      "name": "floatBufferViews",
      "target": 34963
    },
    {
      "buffer": 0,
      "byteLength": 55952,
      "byteOffset": 118920,
      "byteStride": 8,
      "name": "floatBufferViews",
      "target": 34962
    },
    {
      "buffer": 0,
      "byteLength": 167856,
      "byteOffset": 174872,
      "byteStride": 12,
      "name": "floatBufferViews",
      "target": 34962
    }
  ],
  "buffers": [
    {
      "byteLength": 342728,
      "uri": "scene.bin"
    }
  ],
  "images": [
    {
      "uri": "textures/camera_baseColor.jpeg"
    },
    {
      "uri": "textures/micthing_baseColor.png"
    },
    {
      "uri": "textures/screen_baseColor.png"
    }
  ],
  "materials": [
    {
      "doubleSided": true,
      "name": "base",
      "pbrMetallicRoughness": {
        "metallicFactor": 0.09317835365853659,
        "roughnessFactor": 0.0
      }
    },
    {
      "doubleSided": true,
      "name": "black",
      "pbrMetallicRoughness": {
        "baseColorFactor": [
          0.0,
          0.0,
          0.0,
          1.0
        ],
        "metallicFactor": 0.0,
        "roughnessFactor": 0.6
      }
    },
    {
      "doubleSided": true,
      "name": "camera",
      "pbrMetallicRoughness": {
        "baseColorTexture": {
          "index": 0
        },
        "metallicFactor": 0.410251524390244,
        "roughnessFactor": 0.0
      }
    },
    {
      "doubleSided": true,
      "name": "gray",
      "pbrMetallicRoughness": {
        "baseColorFactor": [
          0.6435635529447916,
          0.6435635529447916,
          0.6435635529447916,
          1.0
        ],
        "metallicFactor": 0.39195884146341464,
        "roughnessFactor": 0.24828506097560976
      }
    },
    {
      "doubleSided": true,
      "name": "logo",
      "pbrMetallicRoughness": {
        "baseColorFactor": [
          0.0,
          0.0,
          0.0,
          1.0
        ],
        "metallicFactor": 0.7943978658536586,
        "roughnessFactor": 0.0
      }
    },
    {
      "doubleSided": true,
      "name": "micthing",
      "pbrMetallicRoughness": {
        "baseColorTexture": {
          "index": 1
        },
        "metallicFactor": 0.0,
        "roughnessFactor": 0.6
      }
    },
    {
      "doubleSided": true,
      "emissiveFactor": [
        1.0,
        1.0,
        1.0
      ],
      "emissiveTexture": {
        "index": 2
      },
      "name": "screen",
      "pbrMetallicRoughness": {
        "baseColorTexture": {
          "index": 2
        },
        "roughnessFactor": 0.0
      }
    },
    {
      "doubleSided": true,
      "name": "silver",
      "pbrMetallicRoughness": {
        "baseColorFactor": [
          0.33108273651581677,
          0.33108273651581677,
          0.33108273651581677,
          1.0
        ],
        "metallicFactor": 0.4712271341463415,
        "roughnessFactor": 0.08974847560975607
      }
    }
  ],
  "meshes": [
    {
      "name": "Object_0",
      "primitives": [
        {
          "attributes": {
            "NORMAL": 1,
            "POSITION": 0,
            "TEXCOORD_0": 2
          },
          "indices": 3,
          "material": 0,
          "mode": 4
        }
      ]
    },
    {
      "name": "Object_1",
      "primitives": [
        {
          "attributes": {
            "NORMAL": 5,
            "POSITION": 4,
            "TEXCOORD_0": 6
          },
          "indices": 7,
          "material": 2,
          "mode": 4
        }
      ]
    },
    {
      "name": "Object_2",
      "primitives": [
        {
          "attributes": {
            "NORMAL": 9,
            "POSITION": 8,
            "TEXCOORD_0": 10
          },
          "indices": 11,
          "material": 3,
          "mode": 4
        }
      ]
    },
    {
      "name": "Object_3",
      "primitives": [
        {
          "attributes": {
            "NORMAL": 13,
            "POSITION": 12,
            "TEXCOORD_0": 14
          },
          "indices": 15,
          "material": 4,
          "mode": 4
        }
      ]
    },
    {
      "name": "Object_4",
      "primitives": [
        {
          "attributes": {
            "NORMAL": 17,
            "POSITION": 16,
            "TEXCOORD_0": 18
          },
          "indices": 19,
          "material": 5,
          "mode": 4
        }
      ]
    },
    {
      "name": "Object_5",
      "primitives": [
        {
          "attributes": {
            "NORMAL": 21,
            "POSITION": 20,
            "TEXCOORD_0": 22
          },
          "indices": 23,
          "material": 6,
          "mode": 4
        }
      ]
    },
    {
      "name": "Object_6",
      "primitives": [
        {
          "attributes": {
            "NORMAL": 25,
            "POSITION": 24,
            "TEXCOORD_0": 26
          },
          "indices": 27,
          "material": 1,
          "mode": 4
        }
      ]
    },
    {
      "name": "Object_7",
      "primitives": [
        {
          "attributes": {
            "NORMAL": 29,
            "POSITION": 28,
            "TEXCOORD_0": 30
          },
          "indices": 31,
          "material": 7,
          "mode": 4
        }
      ]
    }
  ],
  "nodes": [
    {
      "children": [
        1
      ],
      "matrix": [
        0.33588194847106934,
        0.0,
        0.0,
        0.0,
        0.0,
        7.458077454970831e-17,
        -0.33588194847106934,
        0.0,
        0.0,
        0.33588194847106934,
        7.458077454970831e-17,
        0.0,
        0.0,
        0.0,
        0.0,
        1.0
      ],
      "name": "Sketchfab_model"
    },
    {
      "children": [
        2
      ],
      "matrix": [
        1.0,
        0.0,
        0.0,
        0.0,
        0.0,
        1.0,
        0.0,
        0.0,
        0.0,
        0.0,
        1.0,
        0.0,
        -0.8874030113220215,
        -0.11845199763774872,
        -2.004812002182007,
        1.0
      ],
      "name": "aa8945ac610343a683f423379061e07c.obj.cleaner.materialmerger.gles"
    },
    {
      "children": [
        3,
        4,
        5,
        6,
        7,
        8,
        9,
        10
      ],
      "name": "Object_2"
    },
    {
      "mesh": 0,
      "name": "Object_3"
    },
    {
      "mesh": 1,
      "name": "Object_4"
    },
    {
      "mesh": 2,
      "name": "Object_5"
    },
    {
      "mesh": 3,
      "name": "Object_6"
    },
    {
      "mesh": 4,
      "name": "Object_7"
    },
    {
      "mesh": 5,
      "name": "Object_8"
    },
    {
      "mesh": 6,
      "name": "Object_9"
    },
    {
      "mesh": 7,
      "name": "Object_10"
    }
  ],
  "samplers": [
    {
      "magFilter": 9729,
      "minFilter": 9987,
      "wrapS": 10497,
      "wrapT": 10497
    }
  ],
  "scene": 0,
  "scenes": [
    {
      "name": "Sketchfab_Scene",
      "nodes": [
        0
      ]
    }
  ],
  "textures": [
    {
      "sampler": 0,
      "source": 0
    },
    {
      "sampler": 0,
      "source": 1
    },
    {
      "sampler": 0,
      "source": 2
    }
  ]
}
